<?xml version="1.0" encoding="UTF-8" standalone="no"?>
<!DOCTYPE svg PUBLIC "-//W3C//DTD SVG 1.1//EN"
 "http://www.w3.org/Graphics/SVG/1.1/DTD/svg11.dtd">
<!-- Generated by graphviz version 2.38.0 (20140413.2041)
 -->
<!-- Title: %3 Pages: 1 -->
<svg width="483pt" height="476pt"
 viewBox="0.00 0.00 482.77 476.00" xmlns="http://www.w3.org/2000/svg" xmlns:xlink="http://www.w3.org/1999/xlink">
<g id="graph0" class="graph" transform="scale(1 1) rotate(0) translate(4 472)">
<title>%3</title>
<polygon fill="white" stroke="none" points="-4,4 -4,-472 478.774,-472 478.774,4 -4,4"/>
<!-- nodeB -->
<g id="node1" class="node"><title>nodeB</title>
<polygon fill="none" stroke="black" points="349.006,-396 288.329,-396 288.329,-360 349.006,-360 349.006,-396"/>
<text text-anchor="middle" x="318.667" y="-373.8" font-family="Times,serif" font-size="14.00">BEAST</text>
</g>
<!-- beastlog -->
<g id="node5" class="node"><title>beastlog</title>
<ellipse fill="#00cdcd" stroke="#00cdcd" cx="156.667" cy="-306" rx="41.5785" ry="18"/>
<text text-anchor="middle" x="156.667" y="-301.8" font-family="Times,serif" font-size="14.00">beast.log</text>
</g>
<!-- nodeB&#45;&gt;beastlog -->
<g id="edge2" class="edge"><title>nodeB&#45;&gt;beastlog</title>
<path fill="none" stroke="black" d="M288.196,-363.834C261.599,-352.341 222.898,-335.618 194.358,-323.286"/>
<polygon fill="black" stroke="black" points="195.67,-320.04 185.102,-319.286 192.893,-326.466 195.67,-320.04"/>
</g>
<!-- beasttrees -->
<g id="node6" class="node"><title>beasttrees</title>
<ellipse fill="#00cdcd" stroke="#00cdcd" cx="263.667" cy="-306" rx="47.3647" ry="18"/>
<text text-anchor="middle" x="263.667" y="-301.8" font-family="Times,serif" font-size="14.00">beast.trees</text>
</g>
<!-- nodeB&#45;&gt;beasttrees -->
<g id="edge3" class="edge"><title>nodeB&#45;&gt;beasttrees</title>
<path fill="none" stroke="black" d="M305.072,-359.697C298.447,-351.265 290.362,-340.975 283.1,-331.732"/>
<polygon fill="black" stroke="black" points="285.658,-329.323 276.728,-323.622 280.154,-333.648 285.658,-329.323"/>
</g>
<!-- beastxmlstate -->
<g id="node9" class="node"><title>beastxmlstate</title>
<ellipse fill="#ee7600" stroke="#ee7600" cx="391.667" cy="-306" rx="62.8252" ry="18"/>
<text text-anchor="middle" x="391.667" y="-301.8" font-family="Times,serif" font-size="14.00">beast.xml.state</text>
</g>
<!-- nodeB&#45;&gt;beastxmlstate -->
<g id="edge4" class="edge"><title>nodeB&#45;&gt;beastxmlstate</title>
<path fill="none" stroke="black" d="M336.712,-359.697C345.864,-350.921 357.116,-340.132 367.05,-330.606"/>
<polygon fill="black" stroke="black" points="369.537,-333.07 374.333,-323.622 364.692,-328.017 369.537,-333.07"/>
</g>
<!-- nodeB2 -->
<g id="node2" class="node"><title>nodeB2</title>
<polygon fill="none" stroke="black" points="329.006,-108 268.329,-108 268.329,-72 329.006,-72 329.006,-108"/>
<text text-anchor="middle" x="298.667" y="-85.8" font-family="Times,serif" font-size="14.00">BEAST</text>
</g>
<!-- beast2log -->
<g id="node7" class="node"><title>beast2log</title>
<ellipse fill="#00cdcd" stroke="#00cdcd" cx="240.667" cy="-18" rx="46.4218" ry="18"/>
<text text-anchor="middle" x="240.667" y="-13.8" font-family="Times,serif" font-size="14.00">beast2.log</text>
</g>
<!-- nodeB2&#45;&gt;beast2log -->
<g id="edge12" class="edge"><title>nodeB2&#45;&gt;beast2log</title>
<path fill="none" stroke="black" d="M284.33,-71.6966C277.273,-63.1793 268.644,-52.7646 260.926,-43.4497"/>
<polygon fill="black" stroke="black" points="263.516,-41.0895 254.44,-35.6223 258.125,-45.5556 263.516,-41.0895"/>
</g>
<!-- beast2trees -->
<g id="node8" class="node"><title>beast2trees</title>
<ellipse fill="#00cdcd" stroke="#00cdcd" cx="356.667" cy="-18" rx="51.7077" ry="18"/>
<text text-anchor="middle" x="356.667" y="-13.8" font-family="Times,serif" font-size="14.00">beast2.trees</text>
</g>
<!-- nodeB2&#45;&gt;beast2trees -->
<g id="edge13" class="edge"><title>nodeB2&#45;&gt;beast2trees</title>
<path fill="none" stroke="black" d="M313.005,-71.6966C320.062,-63.1793 328.691,-52.7646 336.409,-43.4497"/>
<polygon fill="black" stroke="black" points="339.21,-45.5556 342.895,-35.6223 333.819,-41.0895 339.21,-45.5556"/>
</g>
<!-- beast2xmlstate -->
<g id="node10" class="node"><title>beast2xmlstate</title>
<ellipse fill="#ee7600" stroke="#ee7600" cx="298.667" cy="-162" rx="67.1684" ry="18"/>
<text text-anchor="middle" x="298.667" y="-157.8" font-family="Times,serif" font-size="14.00">beast2.xml.state</text>
</g>
<!-- nodeB2&#45;&gt;beast2xmlstate -->
<g id="edge11" class="edge"><title>nodeB2&#45;&gt;beast2xmlstate</title>
<path fill="none" stroke="black" d="M304.58,-108.275C305.382,-116.03 305.608,-125.362 305.258,-134.005"/>
<polygon fill="black" stroke="black" points="301.762,-133.832 304.546,-144.055 308.744,-134.327 301.762,-133.832"/>
</g>
<!-- nodeT -->
<g id="node3" class="node"><title>nodeT</title>
<polygon fill="none" stroke="black" points="409.303,-252 312.032,-252 312.032,-216 409.303,-216 409.303,-252"/>
<text text-anchor="middle" x="360.667" y="-229.8" font-family="Times,serif" font-size="14.00">StateExpander</text>
</g>
<!-- nodeT&#45;&gt;beast2xmlstate -->
<g id="edge8" class="edge"><title>nodeT&#45;&gt;beast2xmlstate</title>
<path fill="none" stroke="black" d="M345.342,-215.697C337.721,-207.093 328.387,-196.554 320.073,-187.168"/>
<polygon fill="black" stroke="black" points="322.641,-184.788 313.39,-179.622 317.4,-189.429 322.641,-184.788"/>
</g>
<!-- nodeXML1 -->
<g id="node4" class="node"><title>nodeXML1</title>
<ellipse fill="cornflowerblue" stroke="cornflowerblue" cx="427.667" cy="-450" rx="44.4928" ry="18"/>
<text text-anchor="middle" x="427.667" y="-445.8" font-family="Times,serif" font-size="14.00">beast.xml</text>
</g>
<!-- nodeXML1&#45;&gt;nodeB -->
<g id="edge1" class="edge"><title>nodeXML1&#45;&gt;nodeB</title>
<path fill="none" stroke="black" d="M405.083,-434.496C390.321,-425.016 370.735,-412.438 353.943,-401.654"/>
<polygon fill="black" stroke="black" points="355.762,-398.662 345.456,-396.204 351.979,-404.552 355.762,-398.662"/>
</g>
<!-- nodeXML1&#45;&gt;nodeT -->
<g id="edge5" class="edge"><title>nodeXML1&#45;&gt;nodeT</title>
<path fill="none" stroke="black" d="M438.962,-432.165C458.096,-401.337 492.158,-334.701 463.667,-288 453.593,-271.487 436.549,-259.9 419.193,-251.87"/>
<polygon fill="black" stroke="black" points="420.134,-248.466 409.562,-247.765 417.39,-254.905 420.134,-248.466"/>
</g>
<!-- beastxmlstate&#45;&gt;nodeT -->
<g id="edge6" class="edge"><title>beastxmlstate&#45;&gt;nodeT</title>
<path fill="none" stroke="black" d="M384.163,-288.055C380.637,-280.091 376.349,-270.411 372.407,-261.51"/>
<polygon fill="black" stroke="black" points="375.567,-260.002 368.318,-252.275 369.167,-262.836 375.567,-260.002"/>
</g>
<!-- beast2xmlstate&#45;&gt;nodeB2 -->
<g id="edge10" class="edge"><title>beast2xmlstate&#45;&gt;nodeB2</title>
<path fill="none" stroke="black" d="M292.789,-144.055C291.971,-136.346 291.729,-127.027 292.062,-118.364"/>
<polygon fill="black" stroke="black" points="295.562,-118.491 292.755,-108.275 288.578,-118.012 295.562,-118.491"/>
</g>
<!-- nodeXML2 -->
<g id="node11" class="node"><title>nodeXML2</title>
<ellipse fill="cornflowerblue" stroke="cornflowerblue" cx="48.6674" cy="-306" rx="48.8355" ry="18"/>
<text text-anchor="middle" x="48.6674" y="-301.8" font-family="Times,serif" font-size="14.00">beast2.xml</text>
</g>
<!-- nodeXML2&#45;&gt;nodeB2 -->
<g id="edge9" class="edge"><title>nodeXML2&#45;&gt;nodeB2</title>
<path fill="none" stroke="black" d="M64.7808,-288.666C94.7145,-258.653 161.435,-193.293 222.667,-144 235.722,-133.491 250.737,-122.758 263.956,-113.724"/>
<polygon fill="black" stroke="black" points="266.021,-116.553 272.345,-108.052 262.1,-110.754 266.021,-116.553"/>
</g>
<!-- nodeXML2&#45;&gt;nodeT -->
<g id="edge7" class="edge"><title>nodeXML2&#45;&gt;nodeT</title>
<path fill="none" stroke="black" d="M84.7235,-293.743C91.646,-291.725 98.8591,-289.719 105.667,-288 172.455,-271.132 250.058,-255.571 301.952,-245.735"/>
<polygon fill="black" stroke="black" points="302.798,-249.137 311.977,-243.845 301.501,-242.258 302.798,-249.137"/>
</g>
</g>
</svg>
